# xmcd
#
# Track frame offsets:
# 150
# 19211
# 38184
# 54269
# 75307
# 92507
# 108764
# 125427
# 143275
# 161852
# 178841
# 199470
#
# Disc length: 2942 seconds
#
# Revision: 1
# Processed by: cddbd v1.5.2PL0 Copyright (c) Steve Scherf et al.
# Submitted via: CedeCatalogueitor 2.6.0.6 http://personales.ya.com/cdcatalogueitor
#
DISCID=930b7c0c
DTITLE=Alive - Lolita, Angel Y Aprediz
DYEAR=1900
DGENRE=
TTITLE0=Lolita, ñangel Y Aprendiz
TTITLE1=O Tu O Yo
TTITLE2=Quien Me Iba A Decir Que Me Ocurriria A Mi 
TTITLE3=Acelerate
TTITLE4=En El Infierno Estoy Mucho Mejor
TTITLE5=Error Circular
TTITLE6=Todo Esto Para Que
TTITLE7=Mientemen
TTITLE8=Nunca Fuimos Cobardes
TTITLE9=Fantasmas Del Amor
TTITLE10=Existe Un Lugar
TTITLE11=Te Quiero, Idiota
EXTD=
EXTT0=
EXTT1=
EXTT2=
EXTT3=
EXTT4=
EXTT5=
EXTT6=
EXTT7=
EXTT8=
EXTT9=
EXTT10=
EXTT11=
PLAYORDER=
